<svg xmlns="http://www.w3.org/2000/svg" width="22.167" height="27.695" viewBox="0 0 22.167 27.695">
  <g id="shopping-bag" transform="translate(-48.8)">
    <path id="Tracé_8793" data-name="Tracé 8793" d="M70.962,23.94,69.376,6.083a.763.763,0,0,0-.759-.7H65.355a5.472,5.472,0,0,0-10.942,0H51.15a.759.759,0,0,0-.759.7L48.806,23.94c0,.023-.006.045-.006.068a3.947,3.947,0,0,0,4.157,3.687H66.81a3.947,3.947,0,0,0,4.157-3.687A.276.276,0,0,0,70.962,23.94ZM59.884,1.529a3.946,3.946,0,0,1,3.942,3.857H55.942A3.946,3.946,0,0,1,59.884,1.529ZM66.81,26.166H52.957a2.44,2.44,0,0,1-2.628-2.124L51.847,6.921h2.56V9.243a.765.765,0,0,0,1.529,0V6.921h7.889V9.243a.765.765,0,0,0,1.529,0V6.921h2.56l1.524,17.121A2.444,2.444,0,0,1,66.81,26.166Z" transform="translate(0)" fill="#fbce01"/>
  </g>
</svg>
