<svg xmlns="http://www.w3.org/2000/svg" width="21.421" height="27.941" viewBox="0 0 21.421 27.941">
  <g id="take-away" transform="translate(-72 -16)">
    <path id="Tracé_10906" data-name="Tracé 10906" d="M93.352,28.238l-1.979-7.918a2.869,2.869,0,0,0,.652-1.991c0-1.327-.6-2.328-1.4-2.328H73.863c-.8,0-1.4,1-1.4,2.328s.6,2.328,1.4,2.328h.1l-1.9,7.581A2.331,2.331,0,0,0,72,28.8V43.475a.466.466,0,0,0,.466.466h20.49a.466.466,0,0,0,.466-.466V28.8a2.331,2.331,0,0,0-.069-.564Zm-.862.565V42.351l-1.4-1.4V29.5a.466.466,0,1,0-.931,0V40.954l-1.4,1.4V28.8a1.4,1.4,0,0,1,.042-.339l1.821-7.284,1.821,7.284A1.4,1.4,0,0,1,92.49,28.8Zm-1.863,13,1.2,1.2H89.423Zm.466-23.477c0,.9-.35,1.4-.466,1.4s-.466-.5-.466-1.4.35-1.4.466-1.4S91.093,17.427,91.093,18.328Zm-17.7,0c0-.948.374-1.4.466-1.4H89.494a3.823,3.823,0,0,0,0,2.794H73.863C73.771,19.725,73.4,19.276,73.4,18.328ZM72.931,28.8a1.4,1.4,0,0,1,.042-.339l1.952-7.807H89.8l-1.9,7.581a2.332,2.332,0,0,0-.069.565V43.009h-14.9Z" fill="#fbce01"/>
    <path id="Tracé_10907" data-name="Tracé 10907" d="M140.191,224a.466.466,0,0,0-.466.466v1.4h-.931v-1.4a.466.466,0,1,0-.931,0v1.4h-.931v-1.4a.466.466,0,1,0-.931,0v1.863h0a.465.465,0,0,0,.048.208l.876,1.753-.388,7.258a1.4,1.4,0,0,0,1.394,1.492h.794a1.4,1.4,0,0,0,1.394-1.492l-.388-7.258.876-1.753a.464.464,0,0,0,.048-.208h0v-1.863A.466.466,0,0,0,140.191,224Zm-.753,2.794-.466.931h-1.287l-.466-.931Zm-.372,9.165a.461.461,0,0,1-.341.148h-.794a.466.466,0,0,1-.465-.5V235.6l.371-6.944h.98l.371,6.944v.008A.461.461,0,0,1,139.066,235.959Z" transform="translate(-60.275 -195.892)" fill="#fbce01"/>
    <path id="Tracé_10908" data-name="Tracé 10908" d="M228.087,235.512l-.362-5.473v-5.573a.466.466,0,0,0-.466-.466c-2.844,0-3.243,4.88-3.258,5.088a.466.466,0,0,0,.256.451l.674.337v.163l-.362,5.473a1.4,1.4,0,0,0,1.391,1.527h.736a1.4,1.4,0,0,0,1.391-1.527Zm-2.7-8.583a2.857,2.857,0,0,1,1.4-1.912v4.572h-.931a.466.466,0,0,0-.257-.416l-.642-.321a10.232,10.232,0,0,1,.429-1.922Zm1.65,9.026a.46.46,0,0,1-.345.153h-.736a.466.466,0,0,1-.463-.512c0-.005,0-.01,0-.016l.334-5.06h.991l.335,5.061c0,.005,0,.01,0,.016a.46.46,0,0,1-.118.359Z" transform="translate(-143.152 -195.892)" fill="#fbce01"/>
  </g>
</svg>
