<svg xmlns="http://www.w3.org/2000/svg" width="27.635" height="27.635" viewBox="0 0 27.635 27.635">
  <g id="shopping-shop-store-market-booth" transform="translate(-2 -2)">
    <path id="Tracé_10982" data-name="Tracé 10982" d="M32.382,43.212h7.369a1.382,1.382,0,0,0,1.382-1.382V35.382A1.382,1.382,0,0,0,39.751,34H32.382A1.382,1.382,0,0,0,31,35.382V41.83A1.382,1.382,0,0,0,32.382,43.212Zm-.461-7.83a.461.461,0,0,1,.461-.461h7.369a.461.461,0,0,1,.461.461V41.83a.461.461,0,0,1-.461.461H32.382a.461.461,0,0,1-.461-.461Z" transform="translate(-15.643 -17.261)" fill="#fbce01"/>
    <path id="Tracé_10983" data-name="Tracé 10983" d="M45.382,40.3H46.3V38.461A.461.461,0,0,0,45.842,38H44v.921h1.382Z" transform="translate(-22.655 -19.419)" fill="#fbce01"/>
    <rect id="Rectangle_18380" data-name="Rectangle 18380" width="0.909" height="0.909" transform="translate(11.088 22.365)" fill="#fbce01"/>
    <path id="Tracé_10984" data-name="Tracé 10984" d="M28.254,26.872h-.921v-11.1a2.311,2.311,0,0,0,1.842-2.257.3.3,0,0,0,0-.064l-.806-5.656A1.391,1.391,0,0,0,27,6.606H23.648V3.382A1.386,1.386,0,0,0,22.266,2H9.369A1.386,1.386,0,0,0,7.988,3.382V6.606H4.639A1.391,1.391,0,0,0,3.271,7.794L2.465,13.45a.3.3,0,0,0,0,.064A2.311,2.311,0,0,0,4.3,15.772v11.1H3.382a1.382,1.382,0,0,0,0,2.764H28.254a1.382,1.382,0,0,0,0-2.764ZM25.49,7.527H27a.456.456,0,0,1,.451.4l.806,5.624a1.382,1.382,0,0,1-2.764-.032Zm-1.842,4.145V7.527h.921v5.988a1.382,1.382,0,1,1-2.764,0v-.461h.461A1.386,1.386,0,0,0,23.648,11.672ZM8.909,3.382a.461.461,0,0,1,.461-.461h12.9a.461.461,0,0,1,.461.461v8.291a.461.461,0,0,1-.461.461H9.369a.461.461,0,0,1-.461-.461Zm11.975,9.672v.461a1.382,1.382,0,1,1-2.764,0v-.461Zm-3.685,0v.461a1.382,1.382,0,0,1-2.764,0v-.461Zm-3.685,0v.461a1.382,1.382,0,1,1-2.764,0v-.461ZM7.067,7.527h.921v4.145a1.386,1.386,0,0,0,1.382,1.382H9.83v.461a1.382,1.382,0,1,1-2.764,0ZM6.606,14.9a2.3,2.3,0,0,0,3.685,0,2.3,2.3,0,0,0,3.685,0,2.3,2.3,0,0,0,3.685,0,2.3,2.3,0,0,0,3.685,0,2.3,2.3,0,0,0,3.685,0,2.3,2.3,0,0,0,1.382.871v11.1h-12.9V20.424a3.685,3.685,0,0,0-7.369,0v6.448H5.224v-11.1A2.3,2.3,0,0,0,6.606,14.9Zm5.988,5.527v6.448H7.067V20.424a2.764,2.764,0,0,1,5.527,0ZM3.382,13.547l.806-5.624a.456.456,0,0,1,.451-.4H6.145v5.988a1.382,1.382,0,1,1-2.764.032ZM28.254,28.714H3.382a.461.461,0,1,1,0-.921H28.254a.461.461,0,0,1,0,.921Z" transform="translate(0 0)" fill="#fbce01"/>
    <path id="Tracé_10985" data-name="Tracé 10985" d="M26.466,10.726l.811-3.233a.471.471,0,0,0-.083-.4.461.461,0,0,0-.364-.175H20.842V6.461A.461.461,0,0,0,20.382,6H19v.921h.921v.461a.461.461,0,0,0,.461.461h.562l.723,2.883a1.388,1.388,0,1,0,1.856.8H24.61a1.382,1.382,0,1,0,1.856-.8Zm-4.242,1.723a.461.461,0,1,1,.461-.461A.461.461,0,0,1,22.224,12.448Zm.461-1.842h-.1l-.23-.921h.332Zm0-1.842h-.562l-.23-.921h.792Zm1.842,1.842h-.921V9.685h.921Zm0-1.842h-.921V7.842h.921Zm.921-.921h.792l-.23.921h-.562Zm0,1.842h.332l-.23.921h-.1Zm.461,2.764a.461.461,0,1,1,.461-.461A.461.461,0,0,1,25.909,12.448Z" transform="translate(-9.17 -2.158)" fill="#fbce01"/>
    <path id="Tracé_10986" data-name="Tracé 10986" d="M40.224,9.842V9.382a1.382,1.382,0,0,0-2.764,0v.461A.461.461,0,0,0,37,10.3v1.842a.461.461,0,0,0,.461.461h2.764a.461.461,0,0,0,.461-.461V10.3A.461.461,0,0,0,40.224,9.842Zm-1.842-.461a.461.461,0,0,1,.921,0v.461h-.921Zm1.382,2.3H37.921v-.921h1.842Z" transform="translate(-18.879 -3.236)" fill="#fbce01"/>
  </g>
</svg>
